<svg id="Capa_1" enable-background="new 0 0 512.005 512.005" height="512" viewBox="0 0 512.005 512.005" width="512" xmlns="http://www.w3.org/2000/svg"><g><path d="m123.9 294.865c17.015-8.082 35.242-11.777 53.103-13.911v-41.95h-80v70.128c8.097-4.919 8.756-5.652 26.897-14.267z"/><path d="m234.973 275.606c14.378-3.816 27.368-21.511 41.545-36.601h-69.517v39.644c9.166-.37 19.155-.696 27.972-3.043z"/><path d="m97.002 119.004h80v90h-80z"/><path d="m207.002 119.004h90v90h-90z"/><path d="m415.002 172.386v-53.382h-88v85.91c47.128-25.382 53.401-25.459 88-32.528z"/><path d="m327.002 89.004h88v-74c0-8.284-6.716-15-15-15h-73z"/><path d="m396.162 206.995-299.16 282.54v-145.3c23.99-14.58 22.09-13.88 38.25-21.55 18.75-8.9 37.73-11.53 59.12-13.33 15.04-1.24 31.62-.31 48.31-4.76 31.73-8.42 48.78-43.12 69.97-58.04 5.46-3.85 2.86-1.37 29.47-15.71 29.58-15.941 40.82-20.611 54.04-23.85z"/><path d="m415.002 230.474v47.35l-254.55 234.181h-43.54z"/><path d="m204.762 512.005 210.24-193.41v178.41c0 8.28-6.72 15-15 15z"/><path d="m207.002 89.004h90v-89c-96.239 0-88.836-.027-90 .05z"/></g></svg>