<?xml version="1.0" encoding="iso-8859-1"?>
<!-- Generator: Adobe Illustrator 19.0.0, SVG Export Plug-In . SVG Version: 6.00 Build 0)  -->
<svg version="1.1" id="Capa_1" xmlns="http://www.w3.org/2000/svg" xmlns:xlink="http://www.w3.org/1999/xlink" x="0px" y="0px"
	 viewBox="0 0 512 512" style="enable-background:new 0 0 512 512;" xml:space="preserve">
<g>
	<g>
		<path d="M502.39,69.717l-47.785-18.976c-15.899-6.314-33.305-6.058-49.011,0.719c-15.707,6.778-27.834,19.267-34.147,35.165
			l-94.353,237.593c4.974,1.02,9.87,2.464,14.651,4.362c4.795,1.905,9.348,4.222,13.654,6.876l94.352-237.591
			c3.311-8.338,9.672-14.889,17.909-18.443c8.237-3.555,17.365-3.689,25.705-0.378l47.785,18.976
			c7.816,3.103,16.667-0.716,19.771-8.532C514.025,81.673,510.205,72.821,502.39,69.717z"/>
	</g>
</g>
<g>
	<g>
		<path d="M280.504,356.883c-28.927-11.487-61.806,2.7-73.292,31.627c-5.564,14.013-5.339,29.353,0.634,43.196
			c5.973,13.843,16.98,24.531,30.992,30.096c6.744,2.679,13.799,4.016,20.844,4.016c7.592,0.001,15.173-1.551,22.353-4.65
			c13.842-5.973,24.531-16.98,30.095-30.992C323.618,401.249,309.431,368.37,280.504,356.883z"/>
	</g>
</g>
<g>
	<g>
		<path d="M282.108,215.743c-1.6-3.708-4.608-6.629-8.36-8.119L110.461,142.78c-7.815-3.103-16.667,0.716-19.771,8.532
			L30.818,302.076l-9.967-3.958c-7.816-3.103-16.667,0.716-19.771,8.532c-3.105,7.815,0.716,16.667,8.531,19.771l22.514,8.941
			c0.507,0.271,1.025,0.523,1.565,0.737l140.83,55.926c1.025-4.987,2.472-9.924,4.389-14.755
			c6.547-16.489,17.808-30.395,32.565-40.214c9.92-6.6,20.947-11.05,32.486-13.174l38.317-96.488
			C283.769,223.642,283.708,219.45,282.108,215.743z M198.457,249.493c-2.371,5.972-8.1,9.611-14.156,9.611
			c-1.87,0-3.771-0.347-5.616-1.079l-33.64-13.359c-7.815-3.103-11.635-11.956-8.532-19.771c3.104-7.816,11.956-11.636,19.771-8.532
			l33.639,13.359C197.74,232.826,201.56,241.678,198.457,249.493z"/>
	</g>
</g>
<g>
</g>
<g>
</g>
<g>
</g>
<g>
</g>
<g>
</g>
<g>
</g>
<g>
</g>
<g>
</g>
<g>
</g>
<g>
</g>
<g>
</g>
<g>
</g>
<g>
</g>
<g>
</g>
<g>
</g>
</svg>
